<svg width="500" height="171" viewBox="0 0 500 171" fill="none" xmlns="http://www.w3.org/2000/svg">
<path d="M163 39.5C163 31.8333 165.083 25.0833 169.25 19.25C173.417 13.4167 178.833 8.83334 185.5 5.5C192.333 2.33334 199.583 0.75 207.25 0.75C215.417 0.750001 223.25 2.58334 230.75 6.25001C238.25 10.0833 244.417 15.3333 249.25 22C254.083 28.6667 256.5 36.25 256.5 44.75C256.5 51.5833 255 57.4167 252 62.25C249.167 67.0833 245.25 71.5 240.25 75.5C235.25 79.5 229.583 83.5 223.25 87.5C222.25 88.1667 221.917 88.75 222.25 89.25C222.583 89.9167 223.167 90.5 224 91C228.333 93.3333 233 96.25 238 99.75C243 103.417 247.333 107.833 251 113C254.667 118.167 256.5 124.417 256.5 131.75C256.5 139.417 254.417 146.167 250.25 152C246.083 157.833 240.583 162.333 233.75 165.5C227.083 168.833 219.917 170.5 212.25 170.5C204.083 170.5 196.25 168.583 188.75 164.75C181.25 161.083 175.083 155.917 170.25 149.25C165.417 142.75 163 135.167 163 126.5C163 119.833 164.5 114 167.5 109C170.5 104.167 174.5 99.75 179.5 95.75C184.667 91.75 190.417 87.75 196.75 83.75C198.583 82.5833 198.333 81.4167 196 80.25C191.833 77.9167 187.167 75 182 71.5C176.833 68 172.333 63.5833 168.5 58.25C164.833 53.0833 163 46.8333 163 39.5ZM181 43.5C181 51.5 182.667 58 186 63C189.5 68.1667 193.917 72.9167 199.25 77.25C200.583 78.25 201.583 78.75 202.25 78.75C203.083 78.75 203.833 78.5 204.5 78C205.333 77.6667 206.25 77.0833 207.25 76.25C212.083 72.9167 216.917 69.25 221.75 65.25C226.75 61.25 230.833 56.9167 234 52.25C237.333 47.75 239 42.9167 239 37.75C239 32.4167 237.667 27.5 235 23C232.333 18.5 228.833 14.8333 224.5 12C220.333 9.33334 215.75 8 210.75 8C204.75 8 199.5 9.66667 195 13C190.667 16.5 187.25 20.9167 184.75 26.25C182.25 31.75 181 37.5 181 43.5ZM180 134.5C180 139.833 181.333 144.667 184 149C186.833 153.333 190.417 156.75 194.75 159.25C199.25 161.917 203.917 163.25 208.75 163.25C214.75 163.25 220 161.5 224.5 158C229 154.667 232.417 150.25 234.75 144.75C237.25 139.417 238.5 133.75 238.5 127.75C238.5 119.75 236.75 113.333 233.25 108.5C229.75 103.667 225.333 99.0833 220 94.75C218.833 93.75 217.833 93.25 217 93.25C216.333 93.25 215.583 93.5 214.75 94C213.917 94.5 213 95.0833 212 95.75C207.167 99.0833 202.25 102.75 197.25 106.75C192.417 110.75 188.333 115.083 185 119.75C181.667 124.417 180 129.333 180 134.5Z" fill="white"/>
<path d="M68.0195 75.0195H55.3242V57.832H10.6953V75.0195H-2V40.0097C-2 34.8991 -1.12109 30.1953 0.636723 25.8984C2.39453 21.6015 4.83593 17.9069 7.96091 14.8144C11.0859 11.722 14.7806 9.31313 19.0449 7.58789C23.3092 5.86263 27.9642 5 33.0098 5H61.623C62.5019 5 63.332 5.16276 64.1133 5.48828C64.8945 5.8138 65.5781 6.26953 66.1641 6.85547C66.75 7.44141 67.2057 8.12503 67.5312 8.90623C67.8568 9.68753 68.0195 10.5175 68.0195 11.3965V75.0195ZM10.6953 45.1367H55.3242V17.6953H33.0098C32.6191 17.6953 31.7891 17.7604 30.5195 17.8906C29.2825 17.9883 27.834 18.2649 26.1738 18.7207C24.5462 19.1764 22.821 19.8763 20.998 20.8203C19.1751 21.7643 17.4987 23.0664 15.9687 24.7265C14.4388 26.3867 13.1693 28.47 12.1601 30.9765C11.1836 33.4505 10.6953 36.4616 10.6953 40.0097V45.1367ZM152.687 45.7226C152.687 49.9869 151.938 53.9095 150.441 57.4902C148.976 61.0709 146.942 64.1634 144.338 66.7675C141.733 69.3392 138.641 71.3574 135.06 72.8222C131.48 74.2871 127.59 75.0195 123.39 75.0195H89.1133C88.2018 75.0195 87.3555 74.8567 86.5742 74.5312C85.793 74.2057 85.1094 73.7662 84.5234 73.2129C83.97 72.6269 83.5306 71.9433 83.2051 71.1621C82.8795 70.3808 82.7168 69.5345 82.7168 68.623V11.3965C82.7168 10.5175 82.8795 9.68753 83.2051 8.90623C83.5306 8.12503 83.97 7.44141 84.5234 6.85547C85.1094 6.26953 85.793 5.8138 86.5742 5.48828C87.3555 5.16276 88.2018 5 89.1133 5H123.39C127.59 5 131.48 5.73242 135.06 7.19726C138.641 8.66213 141.733 10.6966 144.338 13.3007C146.942 15.8724 148.976 18.9648 150.441 22.5781C151.938 26.1588 152.687 30.0651 152.687 34.2968V45.7226ZM139.992 34.2968C139.992 31.8229 139.585 29.5605 138.771 27.5097C137.99 25.459 136.867 23.7174 135.402 22.2851C133.937 20.8203 132.179 19.6972 130.129 18.916C128.11 18.1022 125.864 17.6953 123.39 17.6953H95.4121V62.3242H123.39C125.864 62.3242 128.11 61.9336 130.129 61.1523C132.179 60.3385 133.937 59.2155 135.402 57.7832C136.867 56.3183 137.99 54.5768 138.771 52.5586C139.585 50.5078 139.992 48.2291 139.992 45.7226V34.2968Z" fill="white"/>
<path d="M337.344 71.5802C337.344 72.4916 337.165 73.338 336.807 74.1192C336.481 74.9005 336.025 75.5841 335.439 76.17C334.886 76.7234 334.219 77.1629 333.438 77.4884C332.656 77.8139 331.826 77.9767 330.947 77.9767C330.166 77.9767 329.368 77.8302 328.555 77.5372C327.773 77.2442 327.074 76.7722 326.455 76.1212L280.068 27.6837V77.0001H267.373V12.4005C267.373 11.0984 267.731 9.92656 268.447 8.8849C269.196 7.81068 270.14 7.01315 271.279 6.49232C272.484 6.00404 273.721 5.8901 274.99 6.15052C276.26 6.37839 277.35 6.96432 278.262 7.90833L324.648 56.297V6.9806H337.344V71.5802Z" fill="white"/>
<path d="M331.26 147.178C331.26 149.717 330.82 152.077 329.941 154.258C329.062 156.439 327.826 158.327 326.23 159.922C324.668 161.517 322.796 162.77 320.615 163.682C318.434 164.561 316.058 165 313.486 165H266.953V152.305H313.486C315.049 152.305 316.27 151.865 317.148 150.986C318.027 150.075 318.467 148.805 318.467 147.178V94.9805H331.26V147.178ZM358.604 123.594H403.184V94.9805H415.879V165H403.184V136.387H358.604V165H345.908V94.9805H358.604V123.594ZM499.473 165H486.777V147.812H442.148V165H429.453V129.99C429.453 124.88 430.332 120.176 432.09 115.879C433.848 111.582 436.289 107.887 439.414 104.795C442.539 101.702 446.234 99.2936 450.498 97.5684C454.762 95.8431 459.417 94.9805 464.463 94.9805H493.076C493.955 94.9805 494.785 95.1432 495.566 95.4688C496.348 95.7943 497.031 96.25 497.617 96.8359C498.203 97.4219 498.659 98.1055 498.984 98.8867C499.31 99.668 499.473 100.498 499.473 101.377V165ZM442.148 135.117H486.777V107.676H464.463C464.072 107.676 463.242 107.741 461.973 107.871C460.736 107.969 459.287 108.245 457.627 108.701C455.999 109.157 454.274 109.857 452.451 110.801C450.628 111.745 448.952 113.047 447.422 114.707C445.892 116.367 444.622 118.451 443.613 120.957C442.637 123.431 442.148 126.442 442.148 129.99V135.117Z" fill="white"/>
</svg>
