<svg width="36" height="35" viewBox="0 0 36 35" fill="none" xmlns="http://www.w3.org/2000/svg">
<g clip-path="url(#clip0_96_51)">
<path d="M24.2383 12.1697L20.4331 13.4122L17.1226 14.8733L16.1964 15.1178C15.9606 15.3422 15.7132 15.5694 15.4458 15.7995C15.1524 16.0526 14.8792 16.2827 14.6692 16.4495C14.4362 16.6336 14.091 16.9787 13.9156 17.1973C13.6539 17.5252 13.4468 17.8732 13.3576 18.1407C13.1994 18.6239 13.2771 19.1129 13.582 19.5645C13.9731 20.1397 14.7526 20.7264 15.6615 21.1262C16.1246 21.3305 16.904 21.5922 17.4907 21.7388C18.4657 21.9862 20.3526 22.2537 21.3908 22.294C21.6008 22.3026 21.8827 22.3026 21.8941 22.294C21.9172 22.2796 22.0782 21.9718 22.2652 21.5893C22.9038 20.2864 23.3639 19.064 23.6141 18.0199C23.7637 17.3872 23.8816 16.5445 23.9592 15.5465C23.9794 15.2674 23.988 14.3327 23.9708 14.0163C23.9449 13.4986 23.8988 13.0787 23.827 12.6674C23.8155 12.6069 23.8126 12.5523 23.8183 12.5494C23.8298 12.5408 23.8643 12.5293 24.3331 12.3941L24.2383 12.1698V12.1697H24.2383V12.1697ZM23.3697 12.6788C23.4042 12.6788 23.4962 13.5618 23.5192 14.1198C23.525 14.2377 23.5221 14.3154 23.5164 14.3154C23.4934 14.3154 23.0303 14.0422 22.6996 13.8351C22.4119 13.6539 21.8655 13.2914 21.7792 13.2224C21.7504 13.2023 21.7532 13.1994 21.9891 13.1189C22.3889 12.9837 23.3381 12.6788 23.3697 12.6788ZM21.4311 13.3173C21.457 13.3173 21.5232 13.3547 21.6814 13.4525C22.2738 13.8235 23.0792 14.2722 23.4243 14.4218C23.5307 14.4678 23.5422 14.4505 23.2978 14.6174C22.7743 14.974 22.1214 15.3249 21.3218 15.6787C21.1809 15.742 21.063 15.7909 21.0601 15.7909C21.0544 15.7909 21.0716 15.719 21.0946 15.6327C21.2873 14.9165 21.3966 14.1917 21.4024 13.6107C21.4052 13.323 21.4052 13.323 21.4311 13.3145C21.4254 13.3173 21.4282 13.3173 21.4311 13.3173ZM21.0314 13.4698C21.0486 13.487 21.0371 14.1313 21.0141 14.3067C20.9623 14.7267 20.8818 15.1178 20.7495 15.5579C20.7179 15.6643 20.6891 15.7535 20.6834 15.7592C20.6718 15.7736 20.2778 15.3882 20.1483 15.2386C19.924 14.9797 19.7486 14.7209 19.6191 14.4678C19.553 14.3384 19.4495 14.0853 19.4581 14.0766C19.5041 14.045 21.0199 13.4583 21.0314 13.4698ZM19.1503 14.2089C19.1532 14.2089 19.156 14.2089 19.1589 14.2118C19.1647 14.2176 19.1848 14.2636 19.2021 14.3153C19.2941 14.5656 19.5012 14.9337 19.6795 15.1696C19.8751 15.4285 20.1311 15.7045 20.3439 15.8858C20.413 15.9433 20.4762 15.9979 20.4848 16.0066C20.5021 16.0238 20.5079 16.0209 20.039 16.1993C19.4955 16.4063 18.9029 16.6134 18.2241 16.832C18.062 16.8843 17.9 16.937 17.7381 16.9902C17.7122 16.9989 17.7208 16.9845 17.7956 16.8666C18.1321 16.3402 18.6441 15.3076 18.9317 14.5771C18.9806 14.4505 19.0295 14.324 19.0381 14.2952C19.0497 14.2549 19.064 14.2406 19.1014 14.2204C19.1215 14.2147 19.1417 14.2089 19.1503 14.2089ZM18.5751 14.4477C18.5837 14.4534 18.437 14.7612 18.2932 15.043C18.0142 15.5866 17.7093 16.1216 17.3009 16.7716C17.2319 16.8838 17.1658 16.9874 17.1571 16.9989C17.1427 17.019 17.137 17.0132 17.091 16.9241C16.9932 16.7314 16.9126 16.484 16.8695 16.2568C16.8263 16.0324 16.835 15.6413 16.8839 15.3997C16.9212 15.2214 16.9184 15.2243 17.0047 15.1811C17.3728 14.9942 18.5636 14.4362 18.5751 14.4477ZM23.5365 14.649V14.7698C23.5365 15.4112 23.4675 16.2913 23.3668 16.9327C23.3495 17.0449 23.3351 17.1369 23.3323 17.1398C23.3323 17.1398 23.2489 17.1168 23.1511 17.088C22.7197 16.9528 22.2509 16.7544 21.828 16.5214C21.549 16.369 21.1435 16.1187 21.155 16.1072C21.1578 16.1044 21.2787 16.0411 21.4196 15.9663C21.9834 15.6729 22.5241 15.3566 22.9929 15.0431C23.1684 14.9251 23.4329 14.7353 23.4905 14.6835L23.5365 14.649ZM16.4035 15.5003C16.415 15.5003 16.4121 15.5233 16.3949 15.6269C16.3834 15.7017 16.369 15.8397 16.3633 15.9346C16.3402 16.3546 16.4093 16.6652 16.6164 17.0909C16.6739 17.2088 16.72 17.3066 16.717 17.3094C16.6969 17.3267 14.7929 17.8847 14.1946 18.0487C14.0163 18.0975 13.861 18.1407 13.8494 18.1435C13.8293 18.1493 13.8264 18.1464 13.8351 18.0975C13.9012 17.6747 14.2234 17.1225 14.672 16.6565C14.9712 16.3459 15.2099 16.1647 15.6183 15.9317C15.9117 15.7649 16.3633 15.5147 16.3978 15.5032C16.3978 15.5003 16.4007 15.5003 16.4035 15.5003ZM20.8904 16.3028C20.8933 16.2999 20.9623 16.3373 21.0457 16.3862C21.6612 16.7429 22.5183 17.0736 23.2488 17.2433L23.315 17.2577L23.223 17.3094C22.8405 17.5223 21.5836 18.0458 20.2979 18.5261C20.1109 18.5951 19.9269 18.6642 19.8923 18.6785C19.8578 18.6929 19.8262 18.7015 19.8262 18.6987C19.8262 18.6958 19.878 18.5951 19.9441 18.4714C20.3036 17.7984 20.666 16.9787 20.8501 16.4092C20.8732 16.3546 20.8875 16.3057 20.8904 16.3028ZM20.4331 16.4524C20.436 16.4553 20.413 16.5156 20.3842 16.5847C20.134 17.1915 19.8061 17.8531 19.3862 18.5952C19.2798 18.785 19.1906 18.9375 19.1877 18.9375C19.1848 18.9375 19.0985 18.8856 18.995 18.8224C18.3852 18.4485 17.8445 17.9883 17.4907 17.5425L17.4389 17.4792L17.7007 17.4073C18.6383 17.1513 19.435 16.8752 20.226 16.5358C20.3382 16.4898 20.4302 16.4524 20.4331 16.4524ZM23.2748 17.4447C23.2777 17.5108 23.131 18.1033 23.0101 18.5318C22.9095 18.8914 22.8232 19.1733 22.665 19.6708C22.596 19.8895 22.5356 20.0706 22.5327 20.0706C22.5298 20.0706 22.5126 20.0677 22.4953 20.062C21.6411 19.9067 20.876 19.691 20.157 19.4034C19.9556 19.3228 19.668 19.1934 19.6508 19.179C19.645 19.1732 19.8176 19.0927 20.0362 18.9978C21.3449 18.4254 22.7024 17.7754 23.1684 17.4964C23.223 17.4619 23.2661 17.4447 23.2748 17.4447ZM16.7142 17.669C16.7199 17.6748 16.3546 18.2011 15.8427 18.9173C15.6643 19.1675 15.4573 19.4609 15.3796 19.5702C15.302 19.6795 15.184 19.852 15.1179 19.9556L14.997 20.1426L14.8676 20.0333C14.7151 19.9067 14.4506 19.6363 14.3327 19.4868C14.0853 19.179 13.9185 18.854 13.8523 18.5578C13.8207 18.4197 13.8207 18.3507 13.8494 18.3421C13.8925 18.3306 14.6605 18.1494 15.3796 17.9825C15.7794 17.8905 16.2424 17.7812 16.4093 17.7409C16.5761 17.7006 16.7113 17.669 16.7142 17.669ZM17.0823 17.81L17.1743 17.9135C17.5885 18.3766 18.0113 18.7189 18.5233 19.0179C18.6154 19.0698 18.6844 19.1157 18.6786 19.1187C18.6585 19.133 16.9011 19.7571 16.0871 20.039C15.6298 20.2 15.253 20.3295 15.2502 20.3295C15.2473 20.3295 15.2214 20.3122 15.1926 20.2921L15.1409 20.2547L15.2243 20.1339C15.4946 19.7427 15.8341 19.3142 16.5733 18.4226L17.0823 17.81ZM19.3776 19.4522C19.3804 19.4494 19.5069 19.4954 19.6622 19.553C20.0362 19.6939 20.3324 19.783 20.7293 19.8837C21.2183 20.0074 21.9258 20.1282 22.3429 20.1627C22.4062 20.1684 22.4407 20.1742 22.4292 20.1828C22.409 20.1943 21.9863 20.3353 21.6756 20.4331C21.1809 20.5884 19.6709 21.0342 18.4399 21.388C18.2127 21.4541 18.0171 21.5088 18.0056 21.5116C17.9768 21.5174 17.8819 21.4915 17.8819 21.48C17.8819 21.4743 17.9509 21.3851 18.0343 21.2873C18.4485 20.7926 18.8598 20.2404 19.2021 19.7169C19.297 19.573 19.3776 19.4551 19.3776 19.4522ZM18.8713 19.4667C18.8742 19.4695 18.67 19.7974 18.3134 20.3611C18.1609 20.5998 17.9912 20.8702 17.9308 20.9651C17.8733 21.0572 17.787 21.201 17.7381 21.2815L17.6547 21.4282L17.6115 21.4167C17.508 21.3879 16.7803 21.1319 16.5876 21.0543C16.3489 20.9594 16.1015 20.8443 15.9174 20.7465C15.6873 20.6229 15.3997 20.4388 15.4227 20.433C15.4285 20.4302 15.8225 20.3237 16.2971 20.1943C17.5569 19.852 18.2558 19.6536 18.7131 19.5098C18.7965 19.4839 18.8684 19.4637 18.8713 19.4667ZM22.4522 20.3065H22.455C22.4666 20.3353 22.0006 21.6295 21.8309 22.0379C21.7935 22.13 21.7792 22.153 21.759 22.1501C21.7101 22.1473 21.0342 22.0523 20.6229 21.9919C19.9068 21.8826 18.7045 21.6726 18.4025 21.6036L18.3335 21.5893L18.762 21.4914C19.6824 21.2843 20.1253 21.1722 20.574 21.0341C21.1406 20.8616 21.7015 20.6458 22.2681 20.3813C22.3573 20.341 22.432 20.3093 22.4522 20.3065Z" fill="url(#paint0_linear_96_51)"/>
<path d="M20.3152 3.29946C20.252 3.29088 19.2309 3.65903 18.5722 3.92648C17.6835 4.28893 16.9932 4.63409 16.5675 4.93315C16.4094 5.04537 16.2109 5.2438 16.1793 5.32145C16.1678 5.35022 16.162 5.38473 16.162 5.41924L16.5474 5.78452L17.4649 6.07789L19.648 6.46906L22.1445 6.89763L22.1704 6.68191C22.1618 6.68191 22.156 6.67905 22.1474 6.67905L21.8195 6.62725L21.7534 6.50934C21.4139 5.91108 21.04 5.16901 20.8215 4.66855C20.6518 4.28026 20.4907 3.83161 20.4015 3.50946C20.3526 3.31388 20.3469 3.30238 20.3153 3.29952V3.29945H20.3152V3.29946ZM20.2692 3.4462H20.2721C20.2749 3.44903 20.2864 3.52962 20.298 3.62448C20.3468 4.02721 20.4361 4.41543 20.577 4.83538C20.6834 5.15177 20.6834 5.13453 20.5597 5.09711C20.2663 5.0166 18.9519 4.78938 17.9999 4.65708C17.8475 4.63693 17.718 4.61681 17.718 4.61395C17.7065 4.60245 18.4054 4.23714 18.7132 4.09336C19.1072 3.91212 20.1887 3.46056 20.2692 3.4462ZM17.4965 4.73472L17.6087 4.77207C18.2184 4.97919 19.7514 5.27257 20.5971 5.34159C20.692 5.35023 20.7725 5.35888 20.7754 5.35888C20.7782 5.36174 20.6977 5.40489 20.5942 5.45376C20.1858 5.65798 19.7371 5.90821 19.4264 6.10093C19.3344 6.15842 19.251 6.20448 19.2395 6.20448C19.228 6.20448 19.1676 6.19296 19.1043 6.18433L18.9893 6.16705L18.7017 5.88516C18.1955 5.39336 17.7986 5.01371 17.6461 4.86987L17.4965 4.73472ZM17.3815 4.82386L17.787 5.33009C18.0085 5.60909 18.2328 5.88231 18.2818 5.94268C18.3306 6.00313 18.3709 6.05204 18.3681 6.05491C18.3565 6.06353 17.7813 5.95133 17.4764 5.88234C17.1629 5.81041 17.0335 5.7759 16.8408 5.71552L16.6826 5.66373V5.62344C16.6854 5.43072 16.93 5.14312 17.3441 4.84978L17.3815 4.82386ZM20.8272 5.51416C20.8387 5.51416 20.853 5.54004 20.8876 5.6177C20.9853 5.8334 21.2903 6.41442 21.365 6.52657C21.3881 6.564 21.4283 6.56687 21.0228 6.50071C20.0478 6.34248 19.7342 6.29077 19.7342 6.28501C19.7342 6.28214 19.763 6.262 19.8004 6.24185C20.1024 6.07507 20.4073 5.8622 20.6776 5.63498C20.7438 5.58032 20.8042 5.52855 20.8157 5.51991C20.8185 5.51416 20.8243 5.5113 20.8272 5.51416Z" fill="url(#paint1_linear_96_51)"/>
<path d="M16.1992 5.28125C16.1992 5.28125 16.136 5.38196 16.1964 5.53153C16.2338 5.62353 16.3431 5.73569 16.4667 5.85076C16.4667 5.85076 17.7466 7.09902 17.902 7.27737C18.6095 8.09419 18.9173 8.89953 18.946 10.0098C18.9633 10.7231 18.8281 11.3501 18.4916 12.0778C17.8933 13.3836 16.6307 14.8245 14.6835 16.4237L14.9683 16.3288C15.1523 16.1907 15.4026 16.0441 15.9893 15.7219C17.344 14.9798 18.8684 14.2982 20.7379 13.5964C23.43 12.5839 27.8565 11.3989 30.376 11.0135L30.6378 10.9733L30.5975 10.91C30.3674 10.5533 30.2092 10.3319 30.0193 10.096C29.4672 9.41148 28.797 8.8564 27.9773 8.39619C26.8498 7.76633 25.3915 7.27451 23.5451 6.90922C23.197 6.84016 22.432 6.70787 21.8107 6.61296C20.4934 6.4088 19.642 6.26784 18.7044 6.10677C18.3679 6.04922 17.8645 5.96295 17.5309 5.89107C17.3583 5.85364 17.0276 5.776 16.7687 5.68684C16.5617 5.60627 16.2625 5.52573 16.1992 5.28125ZM16.9413 6.00033C16.9442 5.99749 16.9902 6.01469 17.0506 6.03484C17.1599 6.07219 17.3008 6.11535 17.4677 6.1614C17.5939 6.19612 17.7205 6.22968 17.8474 6.26205C18.0199 6.30517 18.1637 6.34545 18.1666 6.34545C18.1867 6.3656 18.4773 7.29455 18.575 7.65121C18.6124 7.78643 18.6412 7.90145 18.6383 7.90145C18.6354 7.90436 18.6038 7.85544 18.5664 7.78929C18.2299 7.19678 17.6978 6.59567 17.0823 6.11245C17.0018 6.05498 16.9413 6.0032 16.9413 6.00033ZM18.3564 6.39149C18.3708 6.39149 18.4341 6.40013 18.5117 6.41737C19.0007 6.52666 19.8779 6.69348 20.4388 6.78841C20.5337 6.80277 20.6085 6.82007 20.6085 6.82578C20.6085 6.83157 20.5739 6.85166 20.5308 6.8747C20.4359 6.92357 20.0534 7.15077 19.9268 7.23708C19.6075 7.44991 19.32 7.68 19.1129 7.88708C19.0295 7.97051 18.9575 8.03953 18.9575 8.03953C18.9575 8.03953 18.9403 7.99065 18.9259 7.93021C18.8224 7.53042 18.6066 6.93791 18.4111 6.52089C18.3794 6.45476 18.3535 6.39434 18.3535 6.38861C18.3535 6.39436 18.3535 6.39149 18.3564 6.39149ZM20.8472 6.86606C20.8645 6.87179 20.8932 6.9696 20.9507 7.1853C21.0572 7.60237 21.1061 8.06831 21.0888 8.50262C21.083 8.62342 21.0773 8.73557 21.0715 8.74999L21.0629 8.77872L20.9134 8.72984C20.6056 8.63205 20.1052 8.48533 19.6766 8.36456C19.4321 8.2984 19.2337 8.238 19.2337 8.23226C19.2337 8.21498 19.5904 7.85834 19.7428 7.72317C20.0332 7.46715 20.8213 6.85742 20.8472 6.86606ZM21.0457 6.89479C21.0543 6.88621 22.2364 7.09037 22.7743 7.19393C23.1741 7.27157 23.7551 7.39239 23.7896 7.40679C23.8068 7.41252 23.7464 7.44703 23.5537 7.53331C22.7944 7.87561 22.2306 8.18332 21.6698 8.55726C21.5231 8.65505 21.3994 8.73557 21.3966 8.73557C21.3937 8.73557 21.3908 8.65219 21.3908 8.55151C21.3908 8.00505 21.2815 7.4528 21.0802 6.98686C21.06 6.94084 21.0428 6.89771 21.0457 6.89479ZM24.1031 7.49883C24.1117 7.50745 24.0743 7.74044 24.0398 7.87847C23.9362 8.30704 23.6573 8.94272 23.315 9.54093C23.2546 9.64736 23.1999 9.73365 23.1941 9.73651C23.1885 9.73938 23.1108 9.69622 23.0216 9.64445C22.688 9.44887 22.3083 9.2648 21.8941 9.09221C21.7791 9.04333 21.6784 9.00304 21.6756 8.99734C21.6554 8.98005 22.5815 8.36742 23.0705 8.07405C23.4588 7.83822 24.0915 7.4873 24.1031 7.49883ZM24.3216 7.53332C24.3475 7.53332 24.871 7.67715 25.1442 7.75769C25.8201 7.95904 26.5967 8.24376 27.1029 8.47385L27.3128 8.5688L27.1662 8.60328C25.9295 8.88801 24.871 9.21594 23.8499 9.6301C23.7665 9.66461 23.6917 9.69338 23.686 9.69338C23.6803 9.69338 23.709 9.62723 23.7464 9.54667C24.0542 8.89379 24.2526 8.21212 24.3015 7.6311C24.3044 7.57644 24.313 7.53332 24.3216 7.53332ZM19.11 8.72984C19.1186 8.72119 19.5184 8.81613 19.7341 8.87648C20.062 8.96856 20.758 9.2015 20.758 9.21878C20.758 9.22164 20.6804 9.2878 20.5884 9.36836C20.2116 9.68187 19.8492 10.0126 19.4148 10.4325C19.2854 10.5562 19.1761 10.6569 19.1704 10.6569C19.1646 10.6569 19.1618 10.6396 19.1646 10.6166C19.2308 10.1334 19.2164 9.51215 19.1244 8.88226C19.1157 8.8017 19.1071 8.73271 19.11 8.72984ZM27.5114 8.73849C27.5171 8.74421 27.3273 9.04333 27.2065 9.21301C27.0339 9.46036 26.7808 9.7883 26.2084 10.5073C25.9065 10.887 25.567 11.3156 25.4549 11.4594C25.3398 11.6032 25.2449 11.7239 25.242 11.7239C25.2391 11.7239 25.2018 11.6722 25.1615 11.6089C24.8393 11.1257 24.4539 10.7029 23.9966 10.3233C23.9103 10.2513 23.8155 10.1737 23.7838 10.1507C23.7522 10.1277 23.7263 10.1046 23.7263 10.1018C23.7263 10.0932 24.2152 9.88316 24.5863 9.73363C25.2363 9.469 26.1221 9.15264 26.7865 8.94841C27.1346 8.83913 27.5056 8.73271 27.5114 8.73849ZM27.7328 8.79597C27.7443 8.79312 27.8134 8.82763 27.8968 8.87648C28.5957 9.27628 29.2802 9.79114 29.821 10.3204C29.9734 10.47 30.3502 10.8611 30.3444 10.864C30.3444 10.864 30.2121 10.8755 30.0568 10.887C28.8459 10.979 27.2957 11.235 25.8058 11.5945C25.7051 11.6175 25.616 11.6376 25.6102 11.6376C25.6045 11.6376 25.7166 11.5255 25.8576 11.3903C26.7319 10.5476 27.1318 10.0155 27.6034 9.06632C27.6695 8.92542 27.7271 8.80462 27.7328 8.79597C27.73 8.79597 27.73 8.79597 27.7328 8.79597ZM21.3275 9.45179C21.3678 9.46037 21.7417 9.63588 22.0236 9.77678C22.2824 9.90616 22.6707 10.1133 22.6909 10.1305C22.6937 10.1334 22.5556 10.2053 22.386 10.2887C21.8452 10.5591 21.3822 10.815 20.899 11.1084C20.7609 11.1918 20.6459 11.2609 20.643 11.2609C20.6315 11.2609 20.6344 11.2493 20.712 11.1084C20.9709 10.6368 21.178 10.073 21.2959 9.52365C21.3074 9.48052 21.3189 9.45179 21.3275 9.45179ZM20.9536 9.52078C20.9622 9.52943 20.8645 9.88318 20.8041 10.0759C20.6861 10.4412 20.4877 10.8985 20.295 11.2436C20.2489 11.3241 20.1799 11.4421 20.1425 11.5082L20.0706 11.6232L19.9096 11.468C19.7226 11.2868 19.5702 11.1746 19.3746 11.0739C19.2969 11.0337 19.2365 10.9991 19.2365 10.9934C19.2365 10.9704 19.7284 10.5246 20.1051 10.2024C20.3755 9.96947 20.945 9.51216 20.9536 9.52078ZM23.2402 10.4613L23.3812 10.5533C23.7032 10.7633 24.0829 11.0423 24.3734 11.2868C24.5373 11.4219 24.8537 11.7067 24.917 11.7757L24.9515 11.8132L24.7186 11.8793C23.4013 12.2445 22.3831 12.5695 21.1952 13.0068C21.0629 13.0556 20.9507 13.0959 20.9421 13.0959C20.9249 13.0959 20.9105 13.1103 21.2067 12.837C21.9661 12.1382 22.6391 11.3673 23.1395 10.6166L23.2402 10.4613ZM22.6391 10.6109C22.6448 10.6166 22.2508 11.1717 22.0149 11.4852C21.7331 11.8591 21.2326 12.4861 20.8875 12.8945C20.7437 13.0642 20.62 13.2052 20.6142 13.2081C20.6056 13.2109 20.6027 13.1678 20.6027 13.1016C20.6027 12.7536 20.5136 12.3826 20.3582 12.0662C20.2921 11.9339 20.2806 11.9023 20.295 11.8879C20.3496 11.839 21.1866 11.3615 21.7158 11.0768C22.0725 10.887 22.6304 10.6051 22.6391 10.6109ZM19.0035 11.5025C19.0122 11.5025 19.0783 11.537 19.1531 11.5773C19.3372 11.6779 19.5012 11.7901 19.6478 11.9109C19.6536 11.9167 19.5788 11.9771 19.481 12.0489C19.2078 12.2445 18.7936 12.5581 18.552 12.7508C18.2989 12.9521 18.2903 12.9579 18.319 12.9147C18.5089 12.6242 18.6038 12.4603 18.7045 12.2503C18.7936 12.0634 18.8828 11.8419 18.946 11.6492C18.969 11.5658 18.9978 11.5025 19.0035 11.5025ZM19.9729 12.2618C19.9872 12.259 20.0045 12.2848 20.0821 12.3999C20.2461 12.6443 20.3726 12.9722 20.4043 13.2368L20.41 13.2944L20.016 13.4468C19.3113 13.7201 18.6613 13.9904 18.2212 14.1917C18.0976 14.2493 17.8818 14.3528 17.7409 14.4219C17.6 14.4937 17.4849 14.5484 17.4849 14.5455C17.4849 14.5427 17.5741 14.4765 17.6834 14.3959C18.5434 13.7718 19.2883 13.0873 19.8463 12.4028C19.9067 12.3308 19.9614 12.2647 19.9671 12.2618L19.9729 12.2618ZM19.5271 12.3711C19.5386 12.3826 19.2107 12.7536 18.9863 12.9808C18.4312 13.5475 17.8819 13.9904 17.2002 14.4219C17.1139 14.4765 17.0363 14.5254 17.0276 14.5312C17.0075 14.5427 17.0333 14.5139 17.3325 14.1889C17.5223 13.9847 17.6661 13.8121 17.8301 13.5993C17.9394 13.4584 17.9595 13.4382 18.1177 13.326C18.5405 13.0211 19.5155 12.3596 19.5271 12.3711Z" fill="url(#paint2_radial_96_51)"/>
<path d="M7.0723 24.2804C7.01925 24.2804 6.96617 24.2855 6.91359 24.2855C5.84192 24.3426 5.11913 24.8142 4.69653 25.7352C4.33508 26.5682 4.37455 27.657 4.70058 28.4951C5.07971 29.314 5.69234 29.7462 6.71492 29.9094C6.93128 29.9449 7.07636 30.0637 7.4954 30.5529L8.01101 31.157H8.94615L8.32434 30.5302C7.98062 30.1865 7.7026 29.8872 7.7026 29.8609C7.7026 29.8346 7.83409 29.777 7.99325 29.7285C8.51795 29.5697 8.95368 29.1643 9.25848 28.5431C9.50517 28.0442 9.54058 27.89 9.57594 27.2693C9.66845 25.4218 8.69436 24.2667 7.07226 24.2799L7.0723 24.2804ZM7.89218 29.1119C7.43724 29.3322 6.77664 29.3762 6.34544 29.218C5.89959 29.0542 5.46792 28.5912 5.27377 28.067C5.05794 27.4938 5.08876 26.4364 5.33545 25.9601C5.73225 25.2019 6.25698 24.8532 7.02377 24.8532C8.1611 24.8532 8.80811 25.5497 8.89254 26.8589C8.95928 27.9518 8.59329 28.7717 7.89267 29.1114L7.89218 29.1119ZM24.0464 25.8586C23.6542 25.8586 23.3539 26.0173 23.1517 26.3301L22.993 26.5778V25.9338H22.3141V29.7958H22.9925V28.5614C22.9925 27.4326 23.0066 27.3007 23.1643 26.9918C23.3817 26.5682 23.7557 26.357 24.1172 26.4581L24.3598 26.5289V25.8596H24.0464V25.8586ZM20.0582 25.8231C19.9252 25.8231 19.7841 25.8409 19.6437 25.8717C18.7353 26.1093 18.2233 26.9787 18.2546 27.8734C18.2546 28.6226 18.4001 28.9971 18.7616 29.3899C19.5022 29.9974 20.1719 30.0459 21.0757 29.72C21.2299 29.6542 21.3977 29.5784 21.3977 29.5784V28.9709L21.0757 29.1377C20.3443 29.4561 19.7933 29.4561 19.352 29.081C19.0705 28.7944 18.9466 28.4507 18.8895 28.0585H21.6267V27.5377C21.6267 26.4762 20.9877 25.806 20.0576 25.8231H20.0582ZM18.9511 27.5165C18.9511 27.5165 19.0523 26.8544 19.4273 26.5945C19.6078 26.4671 19.815 26.4055 20.0177 26.4055C20.2209 26.4055 20.4236 26.4712 20.5909 26.5991C20.9347 26.8635 20.9923 27.5115 20.9923 27.5115H18.9512V27.5165H18.9511ZM2.5851 26.82C1.84914 26.3741 1.5226 26.0526 1.56253 25.6735C1.67675 24.6247 2.97284 24.7697 3.69059 25.1666L3.6957 24.4609C3.6957 24.4609 3.29887 24.2891 2.73018 24.2799C1.85772 24.2668 1.2936 24.5529 1.02927 25.1352C0.641022 25.9945 0.984795 26.6425 2.2273 27.3654C2.92484 27.7713 3.23316 28.1236 3.23316 28.5078C3.23316 29.3014 2.2763 29.5784 1.2891 29.0805C1.08594 28.9794 0.91405 28.895 0.904959 28.895C0.869551 29.1199 0.887803 29.6583 0.887803 29.6583C0.887803 29.6583 1.19111 29.7857 1.646 29.8735C2.77419 30.0985 3.80087 29.5693 3.89791 28.7099C3.98234 27.9032 3.69062 27.4801 2.58515 26.8194L2.5851 26.82ZM30.0546 25.8141C29.9221 25.8141 29.7816 25.8323 29.635 25.8631C28.7277 26.1007 28.2166 26.9701 28.2515 27.8649C28.2515 28.613 28.3966 28.984 28.758 29.3762C29.4986 29.9843 30.1683 30.0333 31.0767 29.7068C31.2303 29.6411 31.3977 29.5664 31.3977 29.5664V28.9578L31.0762 29.1255C30.3433 29.443 29.7922 29.443 29.3525 29.0679C29.0694 28.7818 28.9466 28.4421 28.8895 28.0453H31.6221V27.5247C31.6221 26.4682 30.9831 25.7974 30.0531 25.8152L30.0546 25.8141ZM28.9476 27.5074C28.9476 27.5074 29.0497 26.8463 29.4242 26.5814C29.6042 26.4535 29.8114 26.3918 30.0141 26.3918C30.2163 26.3918 30.42 26.4575 30.5874 26.5859C30.9311 26.8503 30.9888 27.5029 30.9888 27.5029H28.9481L28.9476 27.5074ZM16.5046 26.8286C15.7686 26.3838 15.4431 26.0612 15.4825 25.6821C15.5967 24.6327 16.8928 24.7783 17.6106 25.1751L17.6157 24.4695C17.6157 24.4695 17.2189 24.2976 16.6502 24.2895C15.7777 24.2764 15.2136 24.5625 14.9488 25.1448C14.5611 26.0041 14.9093 26.6521 16.1478 27.375C16.8443 27.7804 17.1527 28.1282 17.1527 28.5123C17.1527 29.306 16.1963 29.5875 15.2091 29.085C15.0069 28.9839 14.835 28.9005 14.8249 28.9005C14.7895 29.1254 14.8078 29.6638 14.8078 29.6638C14.8078 29.6638 15.1075 29.7866 15.5609 29.8791C16.6901 30.1046 17.7173 29.5758 17.8139 28.7165C17.8978 27.9138 17.6066 27.4907 16.5046 26.8295V26.8286H16.5046ZM34.0434 25.8495C33.6511 25.8495 33.3474 26.0086 33.1487 26.3216L32.9899 26.5682V25.9253H32.311V29.7862H32.9894V28.5518C32.9894 27.4236 33.003 27.2911 33.1613 26.9828C33.3787 26.5597 33.7527 26.3479 34.1141 26.4495L34.3567 26.5202V25.8495L34.0434 25.8495ZM11.1061 26.8063V24.3466H10.4217V29.7948H13.2999V29.1513H11.1061V26.8063H11.1061ZM26.9337 27.5731L26.3696 29.0411L25.8272 27.565L25.2762 25.9293H24.5757C25.0296 27.2163 25.5234 28.5255 26.0213 29.7948C26.2372 29.7998 26.4535 29.7948 26.6693 29.7948L27.4311 27.882L28.207 25.9298H27.5373C27.5373 25.9298 27.2415 26.7052 26.9333 27.5736L26.9337 27.5731ZM12.6832 22.862C12.7934 22.862 12.8853 22.8267 12.9612 22.7509C13.0359 22.676 13.0754 22.5881 13.0754 22.4779C13.0754 22.3677 13.0359 22.2757 12.9612 22.2049C12.8853 22.1341 12.7979 22.0987 12.6882 22.0987C12.577 22.0987 12.485 22.1341 12.4102 22.2089C12.3344 22.2838 12.3 22.3758 12.3 22.4819C12.3 22.5931 12.3354 22.6851 12.4102 22.7549C12.481 22.8256 12.573 22.861 12.6832 22.861V22.862ZM12.4405 22.2352C12.5062 22.1696 12.5861 22.1392 12.6882 22.1392C12.7843 22.1392 12.8642 22.1696 12.9309 22.2352C12.9966 22.301 13.032 22.3808 13.032 22.4779C13.032 22.5749 12.9966 22.6588 12.9309 22.7245C12.8642 22.7902 12.7843 22.8216 12.6882 22.8216C12.5907 22.8216 12.5113 22.7912 12.4456 22.7245C12.3799 22.6588 12.3445 22.5749 12.3445 22.4779C12.3445 22.3808 12.3748 22.301 12.4405 22.2352ZM12.6038 22.5133H12.6483C12.6796 22.5133 12.7104 22.5436 12.7367 22.6012L12.7898 22.7205H12.8732L12.8075 22.588C12.7807 22.535 12.7545 22.5041 12.7236 22.4955C12.7625 22.4864 12.7934 22.4733 12.8156 22.447C12.8378 22.4243 12.8459 22.3934 12.8459 22.3585C12.8459 22.3181 12.8333 22.2878 12.8065 22.2655C12.7762 22.2403 12.7277 22.2266 12.6649 22.2266H12.5245V22.7205H12.5952V22.5132L12.6038 22.5133ZM12.6038 22.2838H12.6655C12.71 22.2838 12.7413 22.2929 12.7585 22.306C12.7752 22.3191 12.7797 22.3364 12.7797 22.3677C12.7797 22.4248 12.7443 22.4516 12.6786 22.4516H12.6028V22.2838H12.6038ZM1.29812 22.4693C1.29812 22.2974 1.29309 22.1696 1.28903 22.0942H1.29309C1.31076 22.1831 1.33251 22.2494 1.3502 22.2934L2.0073 23.7613H2.11751L2.77461 22.2802C2.79235 22.2398 2.81004 22.1791 2.83177 22.0947H2.8368C2.82368 22.2413 2.81913 22.3687 2.81913 22.4703V23.7659H3.04403V21.84H2.76198L2.15795 23.1795C2.13569 23.2325 2.10485 23.3119 2.06544 23.4171H2.0563C2.04317 23.365 2.01234 23.2856 1.96837 23.1886L1.37794 21.8354H1.07822V23.7612H1.29456V22.4702L1.29812 22.4693ZM3.53691 22.4729H3.73106V23.6723H3.53691V22.4729ZM3.63397 22.0331C3.67444 22.0331 3.7088 22.0194 3.73507 21.9926C3.76187 21.9663 3.77959 21.932 3.77959 21.8915C3.77959 21.8521 3.76642 21.8167 3.7356 21.7904C3.70831 21.7636 3.67341 21.75 3.63348 21.75C3.59409 21.75 3.55871 21.7636 3.53237 21.7904C3.50565 21.8167 3.48791 21.8521 3.48791 21.8915C3.48791 21.9355 3.50157 21.9663 3.53237 21.9926C3.56276 22.0194 3.59407 22.0331 3.63348 22.0331H3.63397ZM5.11508 23.6987V23.4873C5.0089 23.5667 4.89466 23.6062 4.77639 23.6062C4.63489 23.6062 4.52009 23.5576 4.43618 23.4647C4.3528 23.3727 4.30832 23.2447 4.30832 23.0855C4.30832 22.9187 4.3528 22.7862 4.44478 22.6851C4.53324 22.5881 4.64802 22.5395 4.78855 22.5395C4.90328 22.5395 5.01342 22.575 5.1151 22.6458V22.4208C5.02261 22.3723 4.91697 22.35 4.79764 22.35C4.57723 22.35 4.40541 22.4208 4.27702 22.5574C4.14961 22.6938 4.0839 22.8793 4.0839 23.1033C4.0839 23.3024 4.14101 23.4697 4.25984 23.5976C4.38366 23.729 4.54194 23.7958 4.73601 23.7958C4.88608 23.7916 5.0089 23.7603 5.11508 23.6987ZM5.67057 23.0592C5.67057 22.901 5.70596 22.7731 5.77167 22.6851C5.83337 22.6058 5.90814 22.5658 5.9966 22.5658C6.07143 22.5658 6.12448 22.5795 6.16339 22.6103V22.3808C6.13308 22.3677 6.0891 22.3631 6.03199 22.3631C5.95262 22.3631 5.8819 22.3899 5.81971 22.439C5.754 22.491 5.70143 22.5704 5.67059 22.6715H5.66556V22.3899H5.44568V23.7648H5.66605V23.0592H5.67057ZM6.9358 23.7921C7.14307 23.7921 7.30988 23.7254 7.4337 23.593C7.55701 23.4615 7.61869 23.2846 7.61869 23.0642C7.61869 22.8393 7.56211 22.6674 7.44685 22.5395C7.33263 22.4117 7.17386 22.3499 6.96659 22.3499C6.75932 22.3499 6.59252 22.4116 6.4687 22.5309C6.33627 22.6624 6.26651 22.8479 6.26651 23.086C6.26651 23.2932 6.32313 23.4651 6.44245 23.593C6.56576 23.7254 6.72904 23.7916 6.9358 23.7916V23.7921ZM6.6224 22.672C6.70632 22.5835 6.81655 22.5395 6.95298 22.5395C7.09456 22.5395 7.20069 22.5835 7.27955 22.672C7.3589 22.7645 7.39836 22.8964 7.39836 23.0728C7.39836 23.2406 7.36295 23.3726 7.28813 23.461C7.21335 23.5535 7.10314 23.6025 6.95753 23.6025C6.81601 23.6025 6.70632 23.5535 6.6224 23.461C6.53902 23.368 6.49907 23.2406 6.49907 23.0728C6.49049 22.906 6.53448 22.7696 6.6224 22.672ZM8.58371 23.6723C8.6676 23.5976 8.71212 23.5056 8.71212 23.3902C8.71212 23.2891 8.67669 23.2053 8.61101 23.139C8.55739 23.086 8.47455 23.0379 8.35474 22.9894C8.24854 22.945 8.18285 22.9055 8.14744 22.8747C8.11208 22.8393 8.09033 22.7954 8.09033 22.7331C8.09033 22.676 8.1126 22.632 8.15609 22.5967C8.20057 22.5613 8.25719 22.5441 8.33301 22.5441C8.4518 22.5441 8.55338 22.5754 8.64637 22.6417V22.4213C8.55742 22.3768 8.46087 22.3556 8.35066 22.3556C8.20914 22.3556 8.08985 22.3946 8.00185 22.4698C7.90933 22.5447 7.8654 22.6417 7.8654 22.7559C7.8654 22.857 7.8957 22.9409 7.9533 23.0026C8.00183 23.0552 8.08479 23.1088 8.19998 23.1567C8.31022 23.2053 8.38502 23.2492 8.42492 23.2846C8.46434 23.32 8.48203 23.364 8.48203 23.4161C8.48203 23.5444 8.39411 23.6107 8.22222 23.6107C8.08978 23.6107 7.97104 23.5672 7.86481 23.4793V23.7168C7.96087 23.7745 8.07614 23.8007 8.2035 23.8007C8.36679 23.7921 8.49464 23.7522 8.58261 23.6728L8.58371 23.6723ZM9.63309 22.35C9.4258 22.35 9.25902 22.4117 9.13517 22.5309C9.00375 22.6624 8.93298 22.8479 8.93298 23.086C8.93298 23.2933 8.99014 23.4652 9.1089 23.593C9.23275 23.7254 9.3955 23.7917 9.60277 23.7917C9.81505 23.7917 9.97684 23.725 10.1007 23.5925C10.2245 23.4611 10.2862 23.2842 10.2862 23.0637C10.2862 22.8388 10.2285 22.667 10.1143 22.5391C9.99505 22.4112 9.83626 22.3495 9.63407 22.3495L9.63309 22.35ZM10.0607 23.0729C10.0607 23.2406 10.0253 23.3726 9.95052 23.4611C9.8757 23.5536 9.76549 23.6026 9.6199 23.6026C9.47832 23.6026 9.36867 23.5535 9.28473 23.4611C9.20135 23.368 9.16142 23.2406 9.16142 23.0729C9.16142 22.8959 9.20543 22.7595 9.29389 22.6674C9.37724 22.5795 9.4875 22.535 9.62447 22.535C9.76092 22.535 9.87064 22.5794 9.94997 22.6674C10.0208 22.7645 10.0602 22.8964 10.0602 23.0729H10.0607ZM10.6562 23.7608H10.8761V22.5704H11.1981V22.3854H10.8761V22.1731C10.8761 21.98 10.9508 21.883 11.1055 21.883C11.1576 21.883 11.2107 21.8961 11.2501 21.9183V21.7197C11.2107 21.702 11.1576 21.698 11.0914 21.698C10.9726 21.698 10.8755 21.7334 10.7962 21.8082C10.7036 21.8961 10.6546 22.0104 10.6546 22.1651V22.3906H10.4221V22.5755H10.6546V23.7614L10.6562 23.7608ZM11.5595 23.3857C11.5595 23.6547 11.6783 23.7916 11.9209 23.7916C12.0089 23.7916 12.0751 23.7775 12.1281 23.7462V23.5571C12.0877 23.5875 12.0397 23.6016 11.9866 23.6016C11.9119 23.6016 11.8593 23.5839 11.8284 23.5439C11.7971 23.5046 11.7794 23.4378 11.7794 23.3458V22.5699H12.1281V22.3849H11.7794V21.9795C11.7036 22.0058 11.6293 22.028 11.559 22.0502V22.3848H11.3214V22.5699H11.559V23.3852L11.5595 23.3857ZM35.2161 25.9202C35.1413 25.8495 35.0528 25.8141 34.9431 25.8141C34.8319 25.8141 34.7399 25.8495 34.6651 25.9253C34.5903 25.9996 34.5549 26.0921 34.5549 26.1983C34.5549 26.3085 34.5903 26.4005 34.6645 26.4712C34.7394 26.542 34.8313 26.5774 34.9426 26.5774C35.0523 26.5774 35.1448 26.542 35.2206 26.4672C35.2949 26.3913 35.3343 26.3039 35.3343 26.1942C35.3303 26.083 35.2904 25.991 35.2156 25.9202L35.2161 25.9202ZM35.1807 26.4409C35.115 26.5066 35.0351 26.5369 34.9381 26.5369C34.842 26.5369 34.7622 26.5066 34.6954 26.4409C34.6298 26.3741 34.5943 26.2907 34.5943 26.1932C34.5943 26.0971 34.6247 26.0173 34.6914 25.9506C34.7571 25.8849 34.8365 25.8545 34.9381 25.8545C35.0341 25.8545 35.114 25.8849 35.1807 25.9506C35.2464 26.0173 35.2818 26.0971 35.2818 26.1932C35.2818 26.2953 35.2515 26.3741 35.1807 26.4409ZM34.9825 26.2159C35.0219 26.2068 35.0533 26.1891 35.075 26.1674C35.0973 26.1446 35.1054 26.1138 35.1054 26.0785C35.1054 26.039 35.0928 26.0077 35.066 25.986C35.0357 25.9607 34.9867 25.947 34.9245 25.947H34.784V26.4403H34.8548V26.2331H34.8987C34.9291 26.2331 34.9594 26.2634 34.9867 26.321L35.0392 26.4398H35.1232L35.0575 26.3074C35.0347 26.2497 35.0084 26.2234 34.9817 26.2148L34.9825 26.2159ZM34.934 26.1715H34.8582V26.0047H34.9204C34.9644 26.0047 34.9952 26.0127 35.0129 26.0264C35.0306 26.0395 35.0346 26.0567 35.0346 26.0881C35.0346 26.1452 34.9992 26.1715 34.9336 26.1715L34.934 26.1715ZM22.6361 22.3283H22.6978V21.8344H22.861V21.7727H22.4729V21.8344H22.6362V22.3283H22.6361ZM23.0102 21.9572C23.0102 21.9092 23.0102 21.8698 23.0067 21.8476C23.0107 21.8738 23.0198 21.8916 23.0239 21.9047L23.2134 22.3283H23.2438L23.4338 21.9006C23.4389 21.8875 23.4429 21.8703 23.4515 21.8476C23.4474 21.8916 23.4474 21.9269 23.4474 21.9537V22.3278H23.5132V21.7727H23.4338L23.262 22.1559C23.2579 22.1696 23.2442 22.1963 23.2356 22.2267H23.2306C23.227 22.2089 23.218 22.1913 23.2053 22.161L23.0335 21.7728H22.9445V22.3288H23.0067V21.9578L23.0102 21.9572Z" fill="#A2A2A2"/>
</g>
<defs>
<linearGradient id="paint0_linear_96_51" x1="16.1405" y1="20.4209" x2="17.5165" y2="19.6078" gradientUnits="userSpaceOnUse">
<stop stop-color="#909CA9"/>
<stop offset="1" stop-color="#EDEDEE"/>
</linearGradient>
<linearGradient id="paint1_linear_96_51" x1="16.1721" y1="5.09292" x2="17.2792" y2="5.09292" gradientUnits="userSpaceOnUse">
<stop stop-color="#939FAB"/>
<stop offset="1" stop-color="#DCDEE1"/>
</linearGradient>
<radialGradient id="paint2_radial_96_51" cx="0" cy="0" r="1" gradientUnits="userSpaceOnUse" gradientTransform="translate(21.7586 10.1707) rotate(-171.457) scale(1.42741 2.85552)">
<stop stop-color="#EE352C"/>
<stop offset="1" stop-color="#A91D22"/>
</radialGradient>
<clipPath id="clip0_96_51">
<rect width="34.4565" height="34.4565" fill="white" transform="translate(0.877686)"/>
</clipPath>
</defs>
</svg>
