<svg width="800" height="800" viewBox="0 0 800 800" fill="none" xmlns="http://www.w3.org/2000/svg">
<path d="M736.401 613.161C692.905 612.077 659.196 616.429 630.923 628.387C622.768 631.648 609.718 631.652 608.63 641.98C612.982 646.332 613.525 653.399 617.331 659.378C623.86 670.249 635.272 684.932 645.604 692.545C657.02 701.243 668.439 709.941 680.398 717.554C701.603 730.604 725.527 738.213 746.186 751.263C758.151 758.869 770.106 768.662 782.068 776.817C788.051 781.162 791.854 788.233 799.467 790.951V789.321C795.66 784.427 794.572 777.359 790.769 771.922C785.336 766.485 779.896 761.591 774.459 756.154C758.69 734.952 739.119 716.466 717.914 701.243C700.519 689.281 662.457 672.97 655.39 652.853C655.39 652.853 654.844 652.311 654.302 651.769C666.263 650.681 680.398 646.332 691.817 643.068C710.304 638.173 727.157 639.261 746.186 634.37C754.884 632.194 763.585 629.475 772.283 626.757V621.866C762.5 612.077 755.43 599.03 745.098 589.787C717.371 565.86 686.923 542.485 655.39 522.914C638.533 512.04 616.786 504.969 598.845 495.729C592.323 492.462 581.446 490.835 577.643 485.398C567.854 473.436 562.417 457.671 555.35 443.533C539.588 413.627 524.359 380.467 510.767 348.933C500.984 327.728 495.002 306.523 483.04 286.952C427.041 194.525 366.147 138.525 272.632 83.6108C252.515 72.1947 228.595 67.3002 203.041 61.321C189.452 60.7752 175.856 59.6906 162.264 59.1448C153.566 55.3383 144.865 45.0103 137.252 40.1158C106.268 20.5409 26.3416 -21.8627 3.5061 34.1366C-11.1742 69.4764 25.2536 104.27 37.7576 122.215C47.0045 134.719 58.9629 148.853 65.4878 162.991C69.2944 172.228 70.3789 182.02 74.1855 191.806C82.8865 215.723 91.0384 242.368 102.458 264.662C108.441 276.078 114.962 288.04 122.575 298.368C126.924 304.347 134.533 307.069 136.167 316.854C128.558 327.728 128.012 344.039 123.66 357.631C104.088 419.067 111.701 495.184 139.428 540.309C148.126 553.898 168.788 583.808 196.515 572.388C220.981 562.602 215.544 531.611 222.612 504.427C224.246 497.899 223.157 493.553 226.418 489.204C226.421 489.747 226.418 490.292 226.418 490.292C234.031 505.515 241.641 520.195 248.708 535.418C265.564 562.056 294.922 589.786 319.388 608.273C332.441 618.056 342.769 634.912 359.079 640.895V639.261H357.991C354.727 634.366 349.836 632.194 345.487 628.387C335.702 618.601 324.824 606.64 317.215 595.766C294.383 565.317 274.262 531.611 256.321 496.814C247.623 479.961 240.01 461.474 232.943 444.621C229.679 438.093 229.679 428.311 224.242 425.05C216.087 437.008 204.128 447.34 198.146 462.02C187.821 485.398 186.73 514.213 182.923 544.115C180.75 544.661 181.835 544.115 180.747 545.204C163.352 540.851 157.369 522.914 150.844 507.688C134.533 469.087 131.815 407.105 145.953 362.526C149.759 351.106 166.07 315.224 159.545 304.35C156.284 294.019 145.407 288.04 139.428 279.884C132.361 269.553 124.748 256.506 119.857 245.087C106.807 214.642 100.282 180.933 86.1473 150.484C79.6223 136.346 68.2063 121.669 58.9629 108.623C48.6349 93.9423 37.2153 83.6108 29.0599 66.212C26.3449 60.2328 22.5349 50.4472 26.8838 43.9222C27.9718 39.5734 30.1445 37.943 34.4968 36.8549C41.564 30.8723 61.6812 38.4853 68.7483 41.7461C88.8655 49.8979 105.718 57.5144 122.575 68.9305C130.184 74.3673 138.34 84.6988 148.125 87.4173H159.545C176.944 91.2203 196.515 88.5053 212.826 93.3965C241.644 102.636 267.737 116.232 291.118 130.912C362.344 176.038 421.058 240.196 460.75 316.855C467.275 329.355 469.99 340.778 475.972 353.825C487.392 380.467 501.526 407.651 512.943 433.748C524.359 459.298 535.232 485.398 551.543 506.603C559.702 518.016 592.32 523.999 607 529.981C617.874 534.872 634.73 539.225 644.516 545.204C662.999 556.616 681.486 569.67 698.885 582.174C707.586 588.695 734.767 602.291 736.401 613.161Z" fill="#2A8199"/>
<path d="M181.833 140.694C172.589 140.694 166.068 141.786 159.543 143.416C159.543 143.416 159.543 143.962 159.543 144.504H160.631C164.983 153.202 172.589 159.185 178.026 166.794C182.379 175.492 186.182 184.193 190.534 192.894C191.076 192.348 191.619 191.806 191.619 191.806C199.235 186.366 203.038 177.668 203.038 164.621C199.774 160.815 199.232 157.008 196.513 153.202C193.252 147.762 186.182 145.047 181.833 140.694Z" fill="#3B8FA6"/>
</svg>
