<svg width="31" height="31" viewBox="0 0 31 31" fill="none" xmlns="http://www.w3.org/2000/svg">
<g clip-path="url(#clip0_96_43)">
<path d="M15.6378 1.1416C8.19623 1.1416 8.66063 4.36867 8.66063 4.36867L8.6698 7.71206H15.7706V8.71509H5.84761C5.84761 8.71509 1.08716 8.17464 1.08716 15.684C1.08716 23.1916 5.24304 22.9259 5.24304 22.9259H7.72357V19.4414C7.72357 19.4414 7.58983 15.2855 11.8135 15.2855H18.8557C18.8557 15.2855 22.8129 15.3497 22.8129 11.4613V5.03185C22.8129 5.03185 23.4138 1.1416 15.6378 1.1416ZM11.7219 3.38946C12.4281 3.38946 12.9997 3.96104 12.9997 4.66729C12.9997 5.37352 12.4281 5.9451 11.7219 5.9451C11.554 5.94534 11.3878 5.91245 11.2326 5.84832C11.0775 5.78419 10.9365 5.69008 10.8178 5.57138C10.6991 5.45267 10.605 5.31171 10.5409 5.15657C10.4767 5.00143 10.4439 4.83515 10.4441 4.66729C10.4441 3.96104 11.0157 3.38946 11.7219 3.38946Z" fill="url(#paint0_linear_96_43)"/>
<path d="M15.8485 30.3007C23.2901 30.3007 22.8257 27.0736 22.8257 27.0736L22.8165 23.7302H15.7157V22.7272H25.6378C25.6378 22.7272 30.3992 23.2676 30.3992 15.7592C30.3992 8.25073 26.2433 8.51728 26.2433 8.51728H23.7627V12.0008C23.7627 12.0008 23.8965 16.1567 19.6728 16.1567H12.6306C12.6306 16.1567 8.67349 16.0926 8.67349 19.981V26.4104C8.67349 26.4104 8.07259 30.3007 15.8485 30.3007ZM19.7644 28.0528C19.5966 28.053 19.4302 28.0201 19.2751 27.956C19.1199 27.8919 18.979 27.7978 18.8603 27.6791C18.7416 27.5603 18.6475 27.4194 18.5834 27.2643C18.5192 27.1091 18.4863 26.9429 18.4866 26.7749C18.4866 26.0697 19.0581 25.4981 19.7644 25.4981C20.4706 25.4981 21.0422 26.0688 21.0422 26.7749C21.0422 27.4821 20.4706 28.0528 19.7644 28.0528Z" fill="url(#paint1_linear_96_43)"/>
</g>
<defs>
<linearGradient id="paint0_linear_96_43" x1="3.90385" y1="3.68991" x2="18.3977" y2="18.2323" gradientUnits="userSpaceOnUse">
<stop stop-color="#387EB8"/>
<stop offset="1" stop-color="#366994"/>
</linearGradient>
<linearGradient id="paint1_linear_96_43" x1="12.8202" y1="12.9415" x2="28.3867" y2="27.855" gradientUnits="userSpaceOnUse">
<stop stop-color="#FFE052"/>
<stop offset="1" stop-color="#FFC331"/>
</linearGradient>
<clipPath id="clip0_96_43">
<rect width="30.1495" height="30.1495" fill="white" transform="translate(0.668457 0.7229)"/>
</clipPath>
</defs>
</svg>
